<svg xmlns="http://www.w3.org/2000/svg" viewBox="0 0 400 400" width="400" height="400">
<rect width="400" height="400" rx="60" fill="#080810"/>
<radialGradient id="glow2"><stop offset="0%" stop-color="#ff2222" stop-opacity="0.15"/><stop offset="100%" stop-color="#080810" stop-opacity="0"/></radialGradient>
<circle cx="200" cy="200" r="170" fill="url(#glow2)"/>
<rect x="110" y="33" width="9" height="9" fill="#dd1111"/>
<rect x="281" y="33" width="9" height="9" fill="#dd1111"/>
<rect x="110" y="42" width="9" height="9" fill="#dd1111"/>
<rect x="281" y="42" width="9" height="9" fill="#dd1111"/>
<rect x="119" y="51" width="9" height="9" fill="#dd1111"/>
<rect x="272" y="51" width="9" height="9" fill="#dd1111"/>
<rect x="128" y="60" width="9" height="9" fill="#dd1111"/>
<rect x="263" y="60" width="9" height="9" fill="#dd1111"/>
<rect x="137" y="69" width="9" height="9" fill="#dd1111"/>
<rect x="254" y="69" width="9" height="9" fill="#dd1111"/>
<rect x="146" y="78" width="9" height="9" fill="#dd1111"/>
<rect x="155" y="78" width="9" height="9" fill="#dd1111"/>
<rect x="236" y="78" width="9" height="9" fill="#dd1111"/>
<rect x="245" y="78" width="9" height="9" fill="#dd1111"/>
<rect x="164" y="87" width="9" height="9" fill="#dd1111"/>
<rect x="173" y="87" width="9" height="9" fill="#dd1111"/>
<rect x="218" y="87" width="9" height="9" fill="#dd1111"/>
<rect x="227" y="87" width="9" height="9" fill="#dd1111"/>
<rect x="173" y="96" width="9" height="9" fill="#dd1111"/>
<rect x="182" y="96" width="9" height="9" fill="#dd1111"/>
<rect x="191" y="96" width="9" height="9" fill="#dd1111"/>
<rect x="200" y="96" width="9" height="9" fill="#dd1111"/>
<rect x="209" y="96" width="9" height="9" fill="#dd1111"/>
<rect x="218" y="96" width="9" height="9" fill="#dd1111"/>
<rect x="38" y="105" width="9" height="9" fill="#dd1111"/>
<rect x="47" y="105" width="9" height="9" fill="#dd1111"/>
<rect x="56" y="105" width="9" height="9" fill="#dd1111"/>
<rect x="164" y="105" width="9" height="9" fill="#dd1111"/>
<rect x="173" y="105" width="9" height="9" fill="#dd1111"/>
<rect x="182" y="105" width="9" height="9" fill="#ff3333"/>
<rect x="191" y="105" width="9" height="9" fill="#ff3333"/>
<rect x="200" y="105" width="9" height="9" fill="#ff3333"/>
<rect x="209" y="105" width="9" height="9" fill="#ff3333"/>
<rect x="218" y="105" width="9" height="9" fill="#dd1111"/>
<rect x="227" y="105" width="9" height="9" fill="#dd1111"/>
<rect x="335" y="105" width="9" height="9" fill="#dd1111"/>
<rect x="344" y="105" width="9" height="9" fill="#dd1111"/>
<rect x="353" y="105" width="9" height="9" fill="#dd1111"/>
<rect x="29" y="114" width="9" height="9" fill="#dd1111"/>
<rect x="38" y="114" width="9" height="9" fill="#ff3333"/>
<rect x="47" y="114" width="9" height="9" fill="#ff3333"/>
<rect x="56" y="114" width="9" height="9" fill="#dd1111"/>
<rect x="65" y="114" width="9" height="9" fill="#dd1111"/>
<rect x="155" y="114" width="9" height="9" fill="#dd1111"/>
<rect x="164" y="114" width="9" height="9" fill="#dd1111"/>
<rect x="173" y="114" width="9" height="9" fill="#ff3333"/>
<rect x="182" y="114" width="9" height="9" fill="#ff3333"/>
<rect x="191" y="114" width="9" height="9" fill="#dd1111"/>
<rect x="200" y="114" width="9" height="9" fill="#dd1111"/>
<rect x="209" y="114" width="9" height="9" fill="#ff3333"/>
<rect x="218" y="114" width="9" height="9" fill="#ff3333"/>
<rect x="227" y="114" width="9" height="9" fill="#dd1111"/>
<rect x="236" y="114" width="9" height="9" fill="#dd1111"/>
<rect x="326" y="114" width="9" height="9" fill="#dd1111"/>
<rect x="335" y="114" width="9" height="9" fill="#dd1111"/>
<rect x="344" y="114" width="9" height="9" fill="#ff3333"/>
<rect x="353" y="114" width="9" height="9" fill="#ff3333"/>
<rect x="362" y="114" width="9" height="9" fill="#dd1111"/>
<rect x="20" y="123" width="9" height="9" fill="#dd1111"/>
<rect x="29" y="123" width="9" height="9" fill="#ff3333"/>
<rect x="38" y="123" width="9" height="9" fill="#dd1111"/>
<rect x="47" y="123" width="9" height="9" fill="#dd1111"/>
<rect x="56" y="123" width="9" height="9" fill="#ff3333"/>
<rect x="65" y="123" width="9" height="9" fill="#dd1111"/>
<rect x="146" y="123" width="9" height="9" fill="#dd1111"/>
<rect x="155" y="123" width="9" height="9" fill="#dd1111"/>
<rect x="164" y="123" width="9" height="9" fill="#dd1111"/>
<rect x="173" y="123" width="9" height="9" fill="#dd1111"/>
<rect x="182" y="123" width="9" height="9" fill="#dd1111"/>
<rect x="191" y="123" width="9" height="9" fill="#dd1111"/>
<rect x="200" y="123" width="9" height="9" fill="#dd1111"/>
<rect x="209" y="123" width="9" height="9" fill="#dd1111"/>
<rect x="218" y="123" width="9" height="9" fill="#dd1111"/>
<rect x="227" y="123" width="9" height="9" fill="#dd1111"/>
<rect x="236" y="123" width="9" height="9" fill="#dd1111"/>
<rect x="245" y="123" width="9" height="9" fill="#dd1111"/>
<rect x="326" y="123" width="9" height="9" fill="#dd1111"/>
<rect x="335" y="123" width="9" height="9" fill="#ff3333"/>
<rect x="344" y="123" width="9" height="9" fill="#dd1111"/>
<rect x="353" y="123" width="9" height="9" fill="#dd1111"/>
<rect x="362" y="123" width="9" height="9" fill="#ff3333"/>
<rect x="371" y="123" width="9" height="9" fill="#dd1111"/>
<rect x="20" y="132" width="9" height="9" fill="#dd1111"/>
<rect x="29" y="132" width="9" height="9" fill="#dd1111"/>
<rect x="56" y="132" width="9" height="9" fill="#dd1111"/>
<rect x="65" y="132" width="9" height="9" fill="#dd1111"/>
<rect x="137" y="132" width="9" height="9" fill="#dd1111"/>
<rect x="146" y="132" width="9" height="9" fill="#dd1111"/>
<rect x="155" y="132" width="9" height="9" fill="#dd1111"/>
<rect x="164" y="132" width="9" height="9" fill="#ffffff"/>
<rect x="173" y="132" width="9" height="9" fill="#ffffff"/>
<rect x="182" y="132" width="9" height="9" fill="#dd1111"/>
<rect x="191" y="132" width="9" height="9" fill="#dd1111"/>
<rect x="200" y="132" width="9" height="9" fill="#dd1111"/>
<rect x="209" y="132" width="9" height="9" fill="#dd1111"/>
<rect x="218" y="132" width="9" height="9" fill="#ffffff"/>
<rect x="227" y="132" width="9" height="9" fill="#ffffff"/>
<rect x="236" y="132" width="9" height="9" fill="#dd1111"/>
<rect x="245" y="132" width="9" height="9" fill="#dd1111"/>
<rect x="254" y="132" width="9" height="9" fill="#dd1111"/>
<rect x="326" y="132" width="9" height="9" fill="#dd1111"/>
<rect x="335" y="132" width="9" height="9" fill="#dd1111"/>
<rect x="362" y="132" width="9" height="9" fill="#dd1111"/>
<rect x="371" y="132" width="9" height="9" fill="#dd1111"/>
<rect x="29" y="141" width="9" height="9" fill="#dd1111"/>
<rect x="56" y="141" width="9" height="9" fill="#dd1111"/>
<rect x="137" y="141" width="9" height="9" fill="#dd1111"/>
<rect x="146" y="141" width="9" height="9" fill="#dd1111"/>
<rect x="155" y="141" width="9" height="9" fill="#ffffff"/>
<rect x="164" y="141" width="9" height="9" fill="#ffffff"/>
<rect x="173" y="141" width="9" height="9" fill="#ffffff"/>
<rect x="182" y="141" width="9" height="9" fill="#ffffff"/>
<rect x="191" y="141" width="9" height="9" fill="#dd1111"/>
<rect x="200" y="141" width="9" height="9" fill="#dd1111"/>
<rect x="209" y="141" width="9" height="9" fill="#ffffff"/>
<rect x="218" y="141" width="9" height="9" fill="#ffffff"/>
<rect x="227" y="141" width="9" height="9" fill="#ffffff"/>
<rect x="236" y="141" width="9" height="9" fill="#ffffff"/>
<rect x="245" y="141" width="9" height="9" fill="#dd1111"/>
<rect x="254" y="141" width="9" height="9" fill="#dd1111"/>
<rect x="335" y="141" width="9" height="9" fill="#dd1111"/>
<rect x="362" y="141" width="9" height="9" fill="#dd1111"/>
<rect x="38" y="150" width="9" height="9" fill="#dd1111"/>
<rect x="47" y="150" width="9" height="9" fill="#dd1111"/>
<rect x="137" y="150" width="9" height="9" fill="#dd1111"/>
<rect x="146" y="150" width="9" height="9" fill="#dd1111"/>
<rect x="155" y="150" width="9" height="9" fill="#ffffff"/>
<rect x="164" y="150" width="9" height="9" fill="#0a0a0a"/>
<rect x="173" y="150" width="9" height="9" fill="#0a0a0a"/>
<rect x="182" y="150" width="9" height="9" fill="#ffffff"/>
<rect x="191" y="150" width="9" height="9" fill="#dd1111"/>
<rect x="200" y="150" width="9" height="9" fill="#dd1111"/>
<rect x="209" y="150" width="9" height="9" fill="#ffffff"/>
<rect x="218" y="150" width="9" height="9" fill="#0a0a0a"/>
<rect x="227" y="150" width="9" height="9" fill="#0a0a0a"/>
<rect x="236" y="150" width="9" height="9" fill="#ffffff"/>
<rect x="245" y="150" width="9" height="9" fill="#dd1111"/>
<rect x="254" y="150" width="9" height="9" fill="#dd1111"/>
<rect x="344" y="150" width="9" height="9" fill="#dd1111"/>
<rect x="353" y="150" width="9" height="9" fill="#dd1111"/>
<rect x="47" y="159" width="9" height="9" fill="#dd1111"/>
<rect x="56" y="159" width="9" height="9" fill="#dd1111"/>
<rect x="137" y="159" width="9" height="9" fill="#dd1111"/>
<rect x="146" y="159" width="9" height="9" fill="#dd1111"/>
<rect x="155" y="159" width="9" height="9" fill="#ffffff"/>
<rect x="164" y="159" width="9" height="9" fill="#0a0a0a"/>
<rect x="173" y="159" width="9" height="9" fill="#0a0a0a"/>
<rect x="182" y="159" width="9" height="9" fill="#ffffff"/>
<rect x="191" y="159" width="9" height="9" fill="#dd1111"/>
<rect x="200" y="159" width="9" height="9" fill="#dd1111"/>
<rect x="209" y="159" width="9" height="9" fill="#ffffff"/>
<rect x="218" y="159" width="9" height="9" fill="#0a0a0a"/>
<rect x="227" y="159" width="9" height="9" fill="#0a0a0a"/>
<rect x="236" y="159" width="9" height="9" fill="#ffffff"/>
<rect x="245" y="159" width="9" height="9" fill="#dd1111"/>
<rect x="254" y="159" width="9" height="9" fill="#dd1111"/>
<rect x="335" y="159" width="9" height="9" fill="#dd1111"/>
<rect x="344" y="159" width="9" height="9" fill="#dd1111"/>
<rect x="56" y="168" width="9" height="9" fill="#dd1111"/>
<rect x="65" y="168" width="9" height="9" fill="#dd1111"/>
<rect x="137" y="168" width="9" height="9" fill="#dd1111"/>
<rect x="146" y="168" width="9" height="9" fill="#dd1111"/>
<rect x="155" y="168" width="9" height="9" fill="#dd1111"/>
<rect x="164" y="168" width="9" height="9" fill="#ffffff"/>
<rect x="173" y="168" width="9" height="9" fill="#ffffff"/>
<rect x="182" y="168" width="9" height="9" fill="#dd1111"/>
<rect x="191" y="168" width="9" height="9" fill="#dd1111"/>
<rect x="200" y="168" width="9" height="9" fill="#dd1111"/>
<rect x="209" y="168" width="9" height="9" fill="#dd1111"/>
<rect x="218" y="168" width="9" height="9" fill="#ffffff"/>
<rect x="227" y="168" width="9" height="9" fill="#ffffff"/>
<rect x="236" y="168" width="9" height="9" fill="#dd1111"/>
<rect x="245" y="168" width="9" height="9" fill="#dd1111"/>
<rect x="254" y="168" width="9" height="9" fill="#dd1111"/>
<rect x="326" y="168" width="9" height="9" fill="#dd1111"/>
<rect x="335" y="168" width="9" height="9" fill="#dd1111"/>
<rect x="65" y="177" width="9" height="9" fill="#dd1111"/>
<rect x="74" y="177" width="9" height="9" fill="#dd1111"/>
<rect x="146" y="177" width="9" height="9" fill="#dd1111"/>
<rect x="155" y="177" width="9" height="9" fill="#dd1111"/>
<rect x="164" y="177" width="9" height="9" fill="#dd1111"/>
<rect x="173" y="177" width="9" height="9" fill="#dd1111"/>
<rect x="182" y="177" width="9" height="9" fill="#dd1111"/>
<rect x="191" y="177" width="9" height="9" fill="#991111"/>
<rect x="200" y="177" width="9" height="9" fill="#991111"/>
<rect x="209" y="177" width="9" height="9" fill="#dd1111"/>
<rect x="218" y="177" width="9" height="9" fill="#dd1111"/>
<rect x="227" y="177" width="9" height="9" fill="#dd1111"/>
<rect x="236" y="177" width="9" height="9" fill="#dd1111"/>
<rect x="245" y="177" width="9" height="9" fill="#dd1111"/>
<rect x="317" y="177" width="9" height="9" fill="#dd1111"/>
<rect x="326" y="177" width="9" height="9" fill="#dd1111"/>
<rect x="74" y="186" width="9" height="9" fill="#dd1111"/>
<rect x="83" y="186" width="9" height="9" fill="#dd1111"/>
<rect x="146" y="186" width="9" height="9" fill="#dd1111"/>
<rect x="155" y="186" width="9" height="9" fill="#dd1111"/>
<rect x="164" y="186" width="9" height="9" fill="#dd1111"/>
<rect x="173" y="186" width="9" height="9" fill="#991111"/>
<rect x="182" y="186" width="9" height="9" fill="#991111"/>
<rect x="191" y="186" width="9" height="9" fill="#991111"/>
<rect x="200" y="186" width="9" height="9" fill="#991111"/>
<rect x="209" y="186" width="9" height="9" fill="#991111"/>
<rect x="218" y="186" width="9" height="9" fill="#991111"/>
<rect x="227" y="186" width="9" height="9" fill="#dd1111"/>
<rect x="236" y="186" width="9" height="9" fill="#dd1111"/>
<rect x="245" y="186" width="9" height="9" fill="#dd1111"/>
<rect x="308" y="186" width="9" height="9" fill="#dd1111"/>
<rect x="317" y="186" width="9" height="9" fill="#dd1111"/>
<rect x="83" y="195" width="9" height="9" fill="#dd1111"/>
<rect x="92" y="195" width="9" height="9" fill="#dd1111"/>
<rect x="101" y="195" width="9" height="9" fill="#dd1111"/>
<rect x="155" y="195" width="9" height="9" fill="#dd1111"/>
<rect x="164" y="195" width="9" height="9" fill="#dd1111"/>
<rect x="173" y="195" width="9" height="9" fill="#dd1111"/>
<rect x="182" y="195" width="9" height="9" fill="#ff8844"/>
<rect x="191" y="195" width="9" height="9" fill="#ff8844"/>
<rect x="200" y="195" width="9" height="9" fill="#ff8844"/>
<rect x="209" y="195" width="9" height="9" fill="#ff8844"/>
<rect x="218" y="195" width="9" height="9" fill="#dd1111"/>
<rect x="227" y="195" width="9" height="9" fill="#dd1111"/>
<rect x="236" y="195" width="9" height="9" fill="#dd1111"/>
<rect x="290" y="195" width="9" height="9" fill="#dd1111"/>
<rect x="299" y="195" width="9" height="9" fill="#dd1111"/>
<rect x="308" y="195" width="9" height="9" fill="#dd1111"/>
<rect x="101" y="204" width="9" height="9" fill="#dd1111"/>
<rect x="110" y="204" width="9" height="9" fill="#dd1111"/>
<rect x="119" y="204" width="9" height="9" fill="#dd1111"/>
<rect x="164" y="204" width="9" height="9" fill="#dd1111"/>
<rect x="173" y="204" width="9" height="9" fill="#dd1111"/>
<rect x="182" y="204" width="9" height="9" fill="#dd1111"/>
<rect x="191" y="204" width="9" height="9" fill="#dd1111"/>
<rect x="200" y="204" width="9" height="9" fill="#dd1111"/>
<rect x="209" y="204" width="9" height="9" fill="#dd1111"/>
<rect x="218" y="204" width="9" height="9" fill="#dd1111"/>
<rect x="227" y="204" width="9" height="9" fill="#dd1111"/>
<rect x="272" y="204" width="9" height="9" fill="#dd1111"/>
<rect x="281" y="204" width="9" height="9" fill="#dd1111"/>
<rect x="290" y="204" width="9" height="9" fill="#dd1111"/>
<rect x="119" y="213" width="9" height="9" fill="#dd1111"/>
<rect x="128" y="213" width="9" height="9" fill="#dd1111"/>
<rect x="137" y="213" width="9" height="9" fill="#dd1111"/>
<rect x="173" y="213" width="9" height="9" fill="#dd1111"/>
<rect x="182" y="213" width="9" height="9" fill="#dd1111"/>
<rect x="191" y="213" width="9" height="9" fill="#dd1111"/>
<rect x="200" y="213" width="9" height="9" fill="#dd1111"/>
<rect x="209" y="213" width="9" height="9" fill="#dd1111"/>
<rect x="218" y="213" width="9" height="9" fill="#dd1111"/>
<rect x="254" y="213" width="9" height="9" fill="#dd1111"/>
<rect x="263" y="213" width="9" height="9" fill="#dd1111"/>
<rect x="272" y="213" width="9" height="9" fill="#dd1111"/>
<rect x="137" y="222" width="9" height="9" fill="#dd1111"/>
<rect x="146" y="222" width="9" height="9" fill="#dd1111"/>
<rect x="155" y="222" width="9" height="9" fill="#dd1111"/>
<rect x="164" y="222" width="9" height="9" fill="#dd1111"/>
<rect x="173" y="222" width="9" height="9" fill="#dd1111"/>
<rect x="182" y="222" width="9" height="9" fill="#ff3333"/>
<rect x="191" y="222" width="9" height="9" fill="#dd1111"/>
<rect x="200" y="222" width="9" height="9" fill="#dd1111"/>
<rect x="209" y="222" width="9" height="9" fill="#ff3333"/>
<rect x="218" y="222" width="9" height="9" fill="#dd1111"/>
<rect x="227" y="222" width="9" height="9" fill="#dd1111"/>
<rect x="236" y="222" width="9" height="9" fill="#dd1111"/>
<rect x="245" y="222" width="9" height="9" fill="#dd1111"/>
<rect x="254" y="222" width="9" height="9" fill="#dd1111"/>
<rect x="146" y="231" width="9" height="9" fill="#dd1111"/>
<rect x="155" y="231" width="9" height="9" fill="#dd1111"/>
<rect x="164" y="231" width="9" height="9" fill="#dd1111"/>
<rect x="173" y="231" width="9" height="9" fill="#ff3333"/>
<rect x="182" y="231" width="9" height="9" fill="#ff3333"/>
<rect x="191" y="231" width="9" height="9" fill="#dd1111"/>
<rect x="200" y="231" width="9" height="9" fill="#dd1111"/>
<rect x="209" y="231" width="9" height="9" fill="#ff3333"/>
<rect x="218" y="231" width="9" height="9" fill="#ff3333"/>
<rect x="227" y="231" width="9" height="9" fill="#dd1111"/>
<rect x="236" y="231" width="9" height="9" fill="#dd1111"/>
<rect x="245" y="231" width="9" height="9" fill="#dd1111"/>
<rect x="146" y="240" width="9" height="9" fill="#dd1111"/>
<rect x="155" y="240" width="9" height="9" fill="#dd1111"/>
<rect x="164" y="240" width="9" height="9" fill="#991111"/>
<rect x="173" y="240" width="9" height="9" fill="#dd1111"/>
<rect x="182" y="240" width="9" height="9" fill="#dd1111"/>
<rect x="191" y="240" width="9" height="9" fill="#991111"/>
<rect x="200" y="240" width="9" height="9" fill="#991111"/>
<rect x="209" y="240" width="9" height="9" fill="#dd1111"/>
<rect x="218" y="240" width="9" height="9" fill="#dd1111"/>
<rect x="227" y="240" width="9" height="9" fill="#991111"/>
<rect x="236" y="240" width="9" height="9" fill="#dd1111"/>
<rect x="245" y="240" width="9" height="9" fill="#dd1111"/>
<rect x="155" y="249" width="9" height="9" fill="#dd1111"/>
<rect x="164" y="249" width="9" height="9" fill="#dd1111"/>
<rect x="173" y="249" width="9" height="9" fill="#dd1111"/>
<rect x="182" y="249" width="9" height="9" fill="#ff3333"/>
<rect x="191" y="249" width="9" height="9" fill="#dd1111"/>
<rect x="200" y="249" width="9" height="9" fill="#dd1111"/>
<rect x="209" y="249" width="9" height="9" fill="#ff3333"/>
<rect x="218" y="249" width="9" height="9" fill="#dd1111"/>
<rect x="227" y="249" width="9" height="9" fill="#dd1111"/>
<rect x="236" y="249" width="9" height="9" fill="#dd1111"/>
<rect x="155" y="258" width="9" height="9" fill="#dd1111"/>
<rect x="164" y="258" width="9" height="9" fill="#dd1111"/>
<rect x="173" y="258" width="9" height="9" fill="#991111"/>
<rect x="182" y="258" width="9" height="9" fill="#dd1111"/>
<rect x="191" y="258" width="9" height="9" fill="#991111"/>
<rect x="200" y="258" width="9" height="9" fill="#991111"/>
<rect x="209" y="258" width="9" height="9" fill="#dd1111"/>
<rect x="218" y="258" width="9" height="9" fill="#991111"/>
<rect x="227" y="258" width="9" height="9" fill="#dd1111"/>
<rect x="236" y="258" width="9" height="9" fill="#dd1111"/>
<rect x="164" y="267" width="9" height="9" fill="#dd1111"/>
<rect x="173" y="267" width="9" height="9" fill="#dd1111"/>
<rect x="182" y="267" width="9" height="9" fill="#ff3333"/>
<rect x="191" y="267" width="9" height="9" fill="#dd1111"/>
<rect x="200" y="267" width="9" height="9" fill="#dd1111"/>
<rect x="209" y="267" width="9" height="9" fill="#ff3333"/>
<rect x="218" y="267" width="9" height="9" fill="#dd1111"/>
<rect x="227" y="267" width="9" height="9" fill="#dd1111"/>
<rect x="164" y="276" width="9" height="9" fill="#dd1111"/>
<rect x="173" y="276" width="9" height="9" fill="#991111"/>
<rect x="182" y="276" width="9" height="9" fill="#dd1111"/>
<rect x="191" y="276" width="9" height="9" fill="#991111"/>
<rect x="200" y="276" width="9" height="9" fill="#991111"/>
<rect x="209" y="276" width="9" height="9" fill="#dd1111"/>
<rect x="218" y="276" width="9" height="9" fill="#991111"/>
<rect x="227" y="276" width="9" height="9" fill="#dd1111"/>
<rect x="173" y="285" width="9" height="9" fill="#dd1111"/>
<rect x="182" y="285" width="9" height="9" fill="#dd1111"/>
<rect x="191" y="285" width="9" height="9" fill="#dd1111"/>
<rect x="200" y="285" width="9" height="9" fill="#dd1111"/>
<rect x="209" y="285" width="9" height="9" fill="#dd1111"/>
<rect x="218" y="285" width="9" height="9" fill="#dd1111"/>
<rect x="173" y="294" width="9" height="9" fill="#dd1111"/>
<rect x="182" y="294" width="9" height="9" fill="#991111"/>
<rect x="191" y="294" width="9" height="9" fill="#dd1111"/>
<rect x="200" y="294" width="9" height="9" fill="#dd1111"/>
<rect x="209" y="294" width="9" height="9" fill="#991111"/>
<rect x="218" y="294" width="9" height="9" fill="#dd1111"/>
<rect x="182" y="303" width="9" height="9" fill="#dd1111"/>
<rect x="191" y="303" width="9" height="9" fill="#dd1111"/>
<rect x="200" y="303" width="9" height="9" fill="#dd1111"/>
<rect x="209" y="303" width="9" height="9" fill="#dd1111"/>
<rect x="182" y="312" width="9" height="9" fill="#dd1111"/>
<rect x="191" y="312" width="9" height="9" fill="#991111"/>
<rect x="200" y="312" width="9" height="9" fill="#991111"/>
<rect x="209" y="312" width="9" height="9" fill="#dd1111"/>
<rect x="173" y="321" width="9" height="9" fill="#dd1111"/>
<rect x="182" y="321" width="9" height="9" fill="#dd1111"/>
<rect x="191" y="321" width="9" height="9" fill="#dd1111"/>
<rect x="200" y="321" width="9" height="9" fill="#dd1111"/>
<rect x="209" y="321" width="9" height="9" fill="#dd1111"/>
<rect x="218" y="321" width="9" height="9" fill="#dd1111"/>
<rect x="164" y="330" width="9" height="9" fill="#dd1111"/>
<rect x="173" y="330" width="9" height="9" fill="#dd1111"/>
<rect x="182" y="330" width="9" height="9" fill="#ee7722"/>
<rect x="191" y="330" width="9" height="9" fill="#dd1111"/>
<rect x="200" y="330" width="9" height="9" fill="#dd1111"/>
<rect x="209" y="330" width="9" height="9" fill="#ee7722"/>
<rect x="218" y="330" width="9" height="9" fill="#dd1111"/>
<rect x="227" y="330" width="9" height="9" fill="#dd1111"/>
<rect x="155" y="339" width="9" height="9" fill="#dd1111"/>
<rect x="164" y="339" width="9" height="9" fill="#dd1111"/>
<rect x="173" y="339" width="9" height="9" fill="#ee7722"/>
<rect x="182" y="339" width="9" height="9" fill="#ee7722"/>
<rect x="191" y="339" width="9" height="9" fill="#dd1111"/>
<rect x="200" y="339" width="9" height="9" fill="#dd1111"/>
<rect x="209" y="339" width="9" height="9" fill="#ee7722"/>
<rect x="218" y="339" width="9" height="9" fill="#ee7722"/>
<rect x="227" y="339" width="9" height="9" fill="#dd1111"/>
<rect x="236" y="339" width="9" height="9" fill="#dd1111"/>
<rect x="146" y="348" width="9" height="9" fill="#dd1111"/>
<rect x="155" y="348" width="9" height="9" fill="#dd1111"/>
<rect x="164" y="348" width="9" height="9" fill="#ee7722"/>
<rect x="173" y="348" width="9" height="9" fill="#ee7722"/>
<rect x="218" y="348" width="9" height="9" fill="#ee7722"/>
<rect x="227" y="348" width="9" height="9" fill="#ee7722"/>
<rect x="236" y="348" width="9" height="9" fill="#dd1111"/>
<rect x="245" y="348" width="9" height="9" fill="#dd1111"/>
<rect x="119" y="249" width="9" height="9" fill="#991111"/>
<rect x="128" y="240" width="9" height="9" fill="#991111"/>
<rect x="119" y="258" width="9" height="9" fill="#ee7722"/>
<rect x="128" y="249" width="9" height="9" fill="#ee7722"/>
<rect x="119" y="276" width="9" height="9" fill="#991111"/>
<rect x="128" y="267" width="9" height="9" fill="#991111"/>
<rect x="119" y="285" width="9" height="9" fill="#ee7722"/>
<rect x="128" y="276" width="9" height="9" fill="#ee7722"/>
<rect x="263" y="249" width="9" height="9" fill="#991111"/>
<rect x="272" y="240" width="9" height="9" fill="#991111"/>
<rect x="263" y="258" width="9" height="9" fill="#ee7722"/>
<rect x="272" y="249" width="9" height="9" fill="#ee7722"/>
<rect x="263" y="276" width="9" height="9" fill="#991111"/>
<rect x="272" y="267" width="9" height="9" fill="#991111"/>
<rect x="263" y="285" width="9" height="9" fill="#ee7722"/>
<rect x="272" y="276" width="9" height="9" fill="#ee7722"/>
</svg>